
<svg id="sw-js-blob-svg" viewBox="0 0 100 100" xmlns="http://www.w3.org/2000/svg" version="1.1">
    <defs> 
        <linearGradient id="sw-gradient" x1="0" x2="1" y1="1" y2="0">
            <stop id="stop1" stop-color="#a56efb" offset="0%"></stop>
            <stop id="stop2" stop-color="#83ffe8" offset="100%"></stop>
        </linearGradient>
    </defs>
<path fill="url(#sw-gradient)" d="M21.4,-26.4C24.8,-22.6,22.7,-13.1,24.5,-4.2C26.3,4.8,31.9,13.2,30.6,19.9C29.4,26.6,21.4,31.6,13.7,31.8C6,32.1,-1.2,27.7,-8.4,24.5C-15.5,21.2,-22.5,19.1,-28.9,13.9C-35.3,8.6,-41.1,0.2,-39.1,-6.1C-37,-12.3,-27.1,-16.4,-19.3,-19.5C-11.5,-22.6,-5.7,-24.8,1.6,-26.7C9,-28.6,17.9,-30.3,21.4,-26.4Z" width="100%" height="100%" transform="translate(50 50)" stroke-width="0" style="transition: all 0.3s ease 0s;" stroke="url(#sw-gradient)"></path>
</svg>