<svg width="221" height="12" viewBox="0 0 221 12" fill="none" xmlns="http://www.w3.org/2000/svg">
<path d="M220.597 7.60955C219.416 7.52917 218.154 7.57069 216.973 7.49031C192.13 6.12717 167.291 5.292 142.336 5.43166C104.231 5.45887 66.0483 6.13596 28.1245 9.08726C21.0444 9.66092 14.087 10.3157 7.12964 10.9705C5.99051 11.0932 5.05469 11.1751 3.99621 11.1758C2.53113 11.2581 1.30799 10.9747 0.891289 9.47224C0.47459 7.96981 1.52633 6.91309 2.7041 6.46549C4.24644 5.73334 5.91144 5.08232 7.66045 4.83738C12.5815 4.0622 17.7059 3.24626 22.6304 2.99906C78.4644 -0.37117 134.07 -1.26377 189.832 3.20459C199.404 3.92881 208.898 5.3029 218.431 6.35206C219.206 6.51397 219.98 6.67588 220.632 6.75664C220.674 6.95968 220.635 7.28461 220.597 7.60955Z" fill="#fe5b54"/>
</svg>
