<svg xmlns="http://www.w3.org/2000/svg" xmlns:xlink="http://www.w3.org/1999/xlink" version="1.1" x="0px" y="0px" viewBox="0 0 100 100" enable-background="new 0 0 100 100" xml:space="preserve"><g><path d="M82.5,37.5v-5v-5h-5v-5h-5v-5h-5h-5v-5h-5h-5h-5h-5h-5v5h-5h-5v5h-5v5h-5v5v5h-5v5v5v5v5v5h5v5v5h5v5h5v5h5h5v5h5h5h5h5h5   v-5h5h5v-5h5v-5h5v-5v-5h5v-5v-5v-5v-5v-5H82.5z M42.5,62.5h-5v5h-5v-5h5v-5h5V62.5z M62.5,67.5v-5h-5v-5h-4.999H52.5v-5h-5v5   h-4.999v-5H47.5v-5h-5v-5h-5v-5h-5v-5h5v5h5v5h5v5h5v-5h5v-5h5v-5h5v5h-5v5h-5v5h-5v5h5v5h5v5h5v5H62.5z"/></g></svg>