<svg xmlns="http://www.w3.org/2000/svg" xmlns:xlink="http://www.w3.org/1999/xlink" xmlns:sketch="http://www.bohemiancoding.com/sketch/ns" viewBox="0 0 91 113.75" version="1.1" x="0px" y="0px"><title>rect7130</title><desc>Created with Sketch.</desc><g stroke="none" stroke-width="1" fill="none" fill-rule="evenodd" sketch:type="MSPage"><path d="M64.4699143,77.6128271 L77.3270571,77.6128271 L77.3270571,64.7556843 L64.4699143,64.7556843 L64.4699143,77.6128271 Z M38.7556286,90.46997 L51.6127714,90.46997 L51.6127714,77.6128271 L38.7556286,77.6128271 L38.7556286,90.46997 Z M25.8984857,90.46997 L38.7556286,90.46997 L38.7556286,77.6128271 L25.8984857,77.6128271 L25.8984857,90.46997 Z M13.0413429,77.6128271 L25.8984857,77.6128271 L25.8984857,64.7556843 L13.0413429,64.7556843 L13.0413429,77.6128271 Z M0.1842,64.7556843 L13.0413429,64.7556843 L13.0413429,51.8985414 L0.1842,51.8985414 L0.1842,64.7556843 Z M51.6127714,90.46997 L64.4699143,90.46997 L64.4699143,77.6128271 L51.6127714,77.6128271 L51.6127714,90.46997 Z M0.1842,51.8985414 L13.0413429,51.8985414 L13.0413429,39.0413986 L0.1842,39.0413986 L0.1842,51.8985414 Z M0.1842,39.0413986 L13.0413429,39.0413986 L13.0413429,26.1842557 L0.1842,26.1842557 L0.1842,39.0413986 Z M13.0413429,26.1842557 L25.8984857,26.1842557 L25.8984857,13.3271129 L13.0413429,13.3271129 L13.0413429,26.1842557 Z M25.8984857,13.3271129 L38.7556286,13.3271129 L38.7556286,0.46997 L25.8984857,0.46997 L25.8984857,13.3271129 Z M38.7556286,13.3271129 L51.6127714,13.3271129 L51.6127714,0.46997 L38.7556286,0.46997 L38.7556286,13.3271129 Z M51.6127714,13.3271129 L64.4699143,13.3271129 L64.4699143,0.46997 L51.6127714,0.46997 L51.6127714,13.3271129 Z M64.4699143,26.1842557 L77.3270571,26.1842557 L77.3270571,13.3271129 L64.4699143,13.3271129 L64.4699143,26.1842557 Z M77.3270571,39.0413986 L90.1842,39.0413986 L90.1842,26.1842557 L77.3270571,26.1842557 L77.3270571,39.0413986 Z M64.4699143,39.0413986 L77.3270571,39.0413986 L77.3270571,26.1842557 L64.4699143,26.1842557 L64.4699143,39.0413986 Z M77.3270571,26.1842557 L90.1842,26.1842557 L90.1842,13.3271129 L77.3270571,13.3271129 L77.3270571,26.1842557 Z M51.6127714,39.0413986 L64.4699143,39.0413986 L64.4699143,26.1842557 L51.6127714,26.1842557 L51.6127714,39.0413986 Z M77.3270571,13.3271129 L90.1842,13.3271129 L90.1842,0.46997 L77.3270571,0.46997 L77.3270571,13.3271129 Z" fill="#000000" sketch:type="MSShapeGroup"/></g></svg>