<?xml version="1.0" standalone="no"?>
<!DOCTYPE svg PUBLIC "-//W3C//DTD SVG 20010904//EN"
 "http://www.w3.org/TR/2001/REC-SVG-20010904/DTD/svg10.dtd">
<svg version="1.0" xmlns="http://www.w3.org/2000/svg"
 width="1000.000000pt" height="1000.000000pt" viewBox="0 0 1000.000000 1000.000000"
 preserveAspectRatio="xMidYMid meet">
<metadata>
Created by potrace 1.14, written by Peter Selinger 2001-2017
</metadata>
<g transform="translate(0.000000,1000.000000) scale(0.100000,-0.100000)"
fill="#000000" stroke="none">
<path d="M4718 9925 c-2 -2 -48 -6 -103 -9 -55 -4 -113 -8 -130 -10 -16 -2
-61 -7 -98 -11 -37 -3 -76 -8 -85 -10 -9 -1 -42 -6 -72 -10 -30 -4 -64 -9 -75
-11 -23 -5 -86 -14 -130 -19 -16 -2 -30 -4 -30 -5 0 -2 -9 -4 -20 -6 -94 -17
-142 -26 -155 -31 -8 -4 -24 -8 -35 -9 -29 -4 -70 -12 -72 -15 -2 -1 -7 -3
-13 -4 -5 -1 -11 -3 -12 -4 -2 -2 -13 -4 -26 -7 -41 -7 -172 -43 -182 -49 -6
-4 -20 -8 -33 -11 -70 -13 -517 -173 -543 -195 -6 -5 -14 -6 -17 -2 -4 3 -7 1
-7 -5 0 -7 -3 -11 -7 -10 -13 2 -39 -9 -235 -105 -104 -50 -188 -95 -188 -99
0 -4 -9 -8 -20 -8 -11 0 -20 -4 -20 -8 0 -5 -16 -14 -35 -22 -19 -8 -35 -17
-35 -22 0 -4 -5 -8 -11 -8 -22 0 -320 -198 -484 -322 -30 -23 -176 -141 -189
-153 -6 -6 -42 -37 -79 -69 -70 -61 -225 -214 -312 -307 -44 -48 -80 -90 -199
-231 l-31 -38 -517 0 -518 0 0 -878 0 -878 1276 1 1277 0 19 35 c11 19 31 57
46 84 28 51 30 54 76 126 39 60 109 154 119 158 4 2 7 8 7 14 0 5 12 22 28 38
15 16 37 41 49 57 24 32 202 213 209 213 2 0 12 8 22 18 34 31 114 97 131 106
9 5 24 16 33 25 33 31 48 42 48 34 0 -4 4 -3 8 3 11 18 200 133 206 126 3 -3
6 0 6 7 0 7 4 10 9 6 5 -3 13 -1 16 5 7 11 246 130 262 130 4 0 20 6 35 14 14
8 43 19 65 26 21 7 44 17 51 23 6 5 12 7 12 3 0 -3 24 3 53 15 28 11 59 22 67
24 8 2 49 13 90 25 41 12 83 22 93 22 9 -1 17 2 17 6 0 4 8 8 18 9 40 2 108
16 117 24 6 4 20 6 30 5 11 -2 24 -1 29 2 6 3 24 7 40 8 17 1 45 5 61 8 137
25 561 26 715 1 14 -2 48 -7 75 -11 28 -3 59 -8 70 -11 11 -2 31 -6 45 -9 14
-3 32 -7 41 -10 9 -2 33 -7 54 -9 20 -3 45 -10 56 -15 10 -6 19 -8 19 -4 0 3
7 1 15 -6 8 -7 15 -10 15 -7 0 4 18 0 40 -8 22 -8 42 -15 45 -15 10 -1 33 -9
165 -55 145 -51 292 -116 405 -179 39 -21 80 -44 92 -50 13 -6 23 -14 23 -18
0 -5 5 -8 11 -8 16 0 185 -119 231 -162 10 -10 22 -18 27 -18 13 0 299 -284
342 -339 19 -24 39 -49 44 -55 17 -17 151 -209 159 -226 3 -8 15 -28 25 -45
11 -16 32 -55 47 -86 l27 -55 1294 0 1293 0 0 878 0 878 -517 0 -518 0 -72 88
c-90 108 -137 160 -261 287 -108 110 -273 264 -298 278 -8 5 -31 23 -49 40
-19 18 -40 37 -47 42 -8 6 -43 32 -78 60 -36 27 -66 53 -68 57 -2 5 -10 8 -18
8 -8 0 -14 3 -14 8 0 4 -16 16 -35 26 -19 11 -35 23 -35 28 0 5 -4 6 -10 3 -5
-3 -10 -2 -10 3 0 9 -57 49 -85 61 -5 2 -26 17 -46 32 -20 16 -40 29 -43 29
-4 0 -30 15 -59 33 -55 36 -126 76 -192 111 -22 12 -42 23 -45 26 -14 14 -422
205 -428 201 -2 -2 -14 5 -28 13 -13 9 -24 14 -24 11 0 -3 -10 0 -22 7 -13 6
-31 12 -41 13 -11 1 -22 7 -27 14 -4 7 -11 12 -16 12 -8 -1 -145 44 -209 69
-21 8 -161 51 -179 55 -6 1 -18 5 -26 8 -17 6 -66 18 -95 24 -11 2 -27 6 -35
10 -8 3 -26 8 -40 10 -14 2 -36 8 -50 13 -14 5 -38 10 -55 12 -16 1 -35 5 -40
9 -6 4 -32 10 -58 13 -27 3 -53 9 -59 12 -5 3 -22 7 -36 9 -35 4 -160 24 -192
31 -32 7 -60 10 -145 19 -38 3 -77 9 -85 11 -8 3 -49 8 -90 10 -41 3 -97 7
-125 10 -55 6 -672 14 -677 9z"/>
<path d="M4960 6043 c0 -4 -21 -8 -48 -9 -199 -2 -461 -100 -626 -234 -50 -41
-139 -136 -179 -192 -43 -61 -116 -192 -121 -220 -2 -7 -5 -20 -9 -28 -3 -8
-8 -24 -13 -35 -9 -26 -14 -47 -29 -120 -3 -14 -8 -37 -11 -52 -9 -41 -13
-316 -4 -328 4 -5 6 -20 5 -33 -1 -13 2 -25 7 -28 4 -3 6 -9 3 -14 -10 -16 56
-211 96 -288 50 -93 66 -117 136 -200 13 -15 23 -31 23 -35 0 -5 5 -5 10 -2 6
3 10 -1 10 -10 0 -9 5 -13 10 -10 6 3 10 2 10 -3 0 -5 26 -29 58 -53 31 -24
59 -46 62 -49 8 -9 134 -82 145 -85 6 -1 28 -10 50 -20 55 -24 181 -61 235
-69 25 -4 59 -8 75 -11 38 -6 219 -6 265 -1 191 23 371 87 498 179 28 21 52
35 52 31 0 -9 169 163 203 206 68 86 153 293 182 441 25 124 20 312 -11 462
-27 127 -96 278 -172 380 -76 99 -68 91 -141 157 -171 154 -433 258 -667 265
-45 1 -86 5 -93 9 -6 4 -11 4 -11 -1z"/>
<path d="M0 2768 l0 -848 28 -1 c99 -2 326 2 333 7 5 3 9 2 9 -3 0 -4 143 -7
317 -6 175 2 323 -1 328 -5 6 -4 35 -38 66 -77 64 -80 118 -142 171 -197 20
-21 34 -38 32 -38 -3 0 12 -16 33 -35 21 -19 41 -35 46 -35 4 0 7 -4 7 -10 0
-5 28 -36 63 -69 56 -54 81 -77 172 -160 29 -26 128 -109 168 -141 11 -8 24
-20 31 -25 6 -6 27 -22 46 -35 19 -13 37 -27 40 -31 13 -17 297 -209 309 -209
5 0 11 -3 13 -7 4 -10 107 -73 118 -73 5 0 10 -3 12 -7 5 -12 69 -46 288 -154
113 -56 213 -105 222 -110 10 -5 25 -9 33 -9 8 0 15 -4 15 -10 0 -5 3 -9 8 -8
4 1 21 -5 37 -12 17 -7 35 -14 40 -16 6 -1 35 -12 65 -24 87 -34 298 -106 380
-130 41 -12 95 -28 119 -36 24 -7 47 -11 52 -9 4 3 10 1 13 -4 6 -8 82 -26 88
-20 2 1 12 -2 23 -8 17 -10 44 -16 115 -28 8 -1 22 -5 30 -8 8 -4 31 -8 50
-11 19 -2 35 -5 35 -6 0 -3 39 -9 73 -12 18 -1 35 -5 37 -8 2 -3 25 -7 51 -9
26 -1 51 -4 55 -7 4 -2 29 -7 56 -10 26 -3 61 -7 78 -9 237 -31 389 -40 705
-39 316 0 484 10 690 39 19 3 53 8 75 11 55 7 80 11 155 24 36 6 76 13 90 15
14 1 69 13 124 25 54 12 107 23 117 25 11 2 23 6 27 9 4 2 27 7 52 11 24 4 51
10 60 15 8 4 29 10 45 13 17 3 65 17 108 30 42 14 77 23 77 20 0 -3 6 0 13 6
8 6 22 12 33 14 10 2 26 7 34 10 31 12 85 27 94 26 5 0 12 3 15 8 6 9 78 33
95 32 5 0 12 3 15 8 3 4 24 14 46 22 22 8 56 21 75 29 19 9 38 15 43 14 4 -1
7 3 7 10 0 6 3 9 6 5 4 -3 19 0 35 9 16 8 30 14 31 13 7 -4 468 235 468 242 0
5 8 9 18 9 10 0 28 9 40 20 12 11 24 20 27 20 10 0 200 124 203 132 2 5 8 8
13 8 12 0 123 80 127 92 2 4 8 8 13 8 6 0 15 5 22 10 7 6 61 49 122 97 60 47
115 91 121 97 6 6 44 40 84 76 82 73 249 238 325 322 53 58 70 77 150 173 27
33 55 66 62 73 7 7 13 17 13 22 0 7 822 16 998 11 l22 -1 0 848 0 849 -1287 0
-1287 0 -18 -21 c-9 -12 -17 -24 -18 -28 0 -14 -103 -183 -154 -253 -113 -157
-301 -364 -416 -455 -17 -14 -36 -29 -43 -35 -7 -5 -30 -23 -52 -39 -22 -17
-42 -33 -45 -36 -11 -12 -179 -120 -245 -157 -107 -60 -334 -166 -380 -179 -5
-1 -37 -12 -70 -24 -64 -23 -216 -69 -250 -76 -11 -2 -31 -6 -45 -9 -14 -4
-36 -8 -50 -11 -14 -3 -32 -7 -41 -10 -9 -2 -33 -7 -54 -9 -20 -3 -40 -7 -44
-9 -4 -3 -29 -7 -56 -10 -28 -4 -66 -8 -85 -11 -182 -26 -581 -25 -755 1 -16
2 -46 6 -65 8 -19 3 -44 7 -55 9 -11 3 -40 8 -65 12 -58 10 -66 11 -120 25
-25 6 -54 12 -65 14 -11 3 -35 9 -53 14 -18 6 -34 11 -37 12 -3 0 -10 2 -17 4
-7 3 -44 14 -83 26 -38 11 -79 25 -90 29 -11 5 -49 20 -85 34 -36 14 -100 41
-143 61 -42 20 -80 35 -83 35 -4 0 -10 3 -13 8 -3 5 -17 14 -31 20 -88 42
-337 204 -390 253 -8 8 -34 28 -55 45 -68 51 -267 255 -336 345 -78 100 -183
255 -201 296 -7 16 -15 31 -18 34 -3 3 -14 23 -25 45 l-21 40 -1277 1 -1277 1
0 -849z"/>
</g>
</svg>
