<?xml version="1.0" standalone="no"?>
<!DOCTYPE svg PUBLIC "-//W3C//DTD SVG 20010904//EN"
 "http://www.w3.org/TR/2001/REC-SVG-20010904/DTD/svg10.dtd">
<svg version="1.0" xmlns="http://www.w3.org/2000/svg"
 width="157.000000pt" height="157.000000pt" viewBox="0 0 157.000000 157.000000"
 preserveAspectRatio="xMidYMid meet">
<metadata>
Created by potrace 1.14, written by Peter Selinger 2001-2017
</metadata>
<g transform="translate(0.000000,157.000000) scale(0.100000,-0.100000)"
fill="#000000" stroke="none">
<path d="M717 1564 c-1 -2 -19 -4 -40 -6 -20 -1 -37 -6 -37 -11 0 -4 -5 -5
-10 -2 -23 14 -230 -70 -275 -111 -13 -12 -26 -20 -28 -18 -9 9 -155 -144
-190 -199 -20 -31 -37 -61 -37 -66 0 -5 -5 -11 -10 -13 -6 -2 -12 -13 -13 -26
0 -12 -5 -22 -9 -22 -4 0 -8 -9 -8 -19 0 -11 -5 -23 -11 -26 -6 -4 -8 -13 -5
-20 2 -7 1 -16 -4 -21 -16 -16 -36 -153 -34 -234 3 -142 48 -289 126 -412 36
-57 119 -149 129 -142 5 3 9 -1 9 -8 1 -16 73 -70 153 -113 140 -75 299 -102
482 -82 102 11 238 67 340 139 57 41 152 136 178 178 11 19 23 37 26 40 27 24
93 191 108 273 13 74 7 267 -11 335 -77 290 -304 506 -601 572 -46 11 -220 21
-228 14z"/>
</g>
</svg>
